<svg width="64" height="64" viewBox="0 0 64 64" fill="none" xmlns="http://www.w3.org/2000/svg">
  <!-- Main background circle -->
  <circle cx="32" cy="32" r="30" fill="#2563EB" stroke="#1E40AF" stroke-width="2"/>
  
  <!-- Authorization Chain Links -->
  <g stroke="white" stroke-width="2.5" fill="none" stroke-linecap="round" opacity="0.9">
    <!-- First link -->
    <ellipse cx="20" cy="26" rx="4" ry="6" transform="rotate(-15 20 26)"/>
    <!-- Second link -->
    <ellipse cx="28" cy="22" rx="4" ry="6" transform="rotate(15 28 22)"/>
    <!-- Third link -->
    <ellipse cx="36" cy="26" rx="4" ry="6" transform="rotate(-15 36 26)"/>
  </g>
  
  <!-- IP Diamond -->
  <g transform="translate(32, 35)" fill="white">
    <path d="M-6,-8 L0,-12 L6,-8 L4,-2 L-4,-2 Z" opacity="0.9"/>
    <path d="M-4,-2 L0,6 L4,-2" opacity="0.7"/>
    <!-- Sparkle effects -->
    <circle cx="-8" cy="-6" r="1" opacity="0.8"/>
    <circle cx="8" cy="-4" r="0.8" opacity="0.8"/>
    <circle cx="2" cy="-10" r="0.6" opacity="0.8"/>
  </g>
  
  <!-- Verification Shield -->
  <g transform="translate(44, 20)" fill="white" opacity="0.9">
    <path d="M0,-6 C-4,-6 -6,-4 -6,0 C-6,6 0,10 0,10 S6,6 6,0 C6,-4 4,-6 0,-6 Z"/>
    <!-- Checkmark -->
    <path d="M-2,0 L0,2 L3,-2" stroke="#2563EB" stroke-width="1.5" fill="none" stroke-linecap="round" stroke-linejoin="round"/>
  </g>
  
  <!-- Connection dots -->
  <circle cx="16" cy="45" r="2" fill="white" opacity="0.7"/>
  <circle cx="48" cy="45" r="2" fill="white" opacity="0.7"/>
  <circle cx="32" cy="52" r="1.5" fill="white" opacity="0.6"/>
  
  <!-- Connecting lines -->
  <g stroke="white" stroke-width="1" opacity="0.3" fill="none">
    <line x1="18" y1="44" x2="30" y2="50"/>
    <line x1="46" y1="44" x2="34" y2="50"/>
  </g>
</svg>